<svg xmlns="http://www.w3.org/2000/svg" viewBox="0 0 820 400" width="820" height="400" role="img" aria-label="Prevalência por IMC"><style>
:root{--superficie:#fcfcfb;--plano:#f9f9f7;--tinta:#0b0b0b;--tinta2:#52514e;--tinta3:#898781;--grade:#e1e0d9;--eixo:#c3c2b7;--s1:#2a78d6;--s2:#eb6834;--s3:#1baf7a;--neutro:#f0efec;--queda:#d03b3b;--borda:rgba(11,11,11,0.10);}
@media (prefers-color-scheme: dark){:root{--superficie:#1a1a19;--plano:#0d0d0d;--tinta:#ffffff;--tinta2:#c3c2b7;--tinta3:#898781;--grade:#2c2c2a;--eixo:#383835;--s1:#3987e5;--s2:#d95926;--s3:#199e70;--neutro:#383835;--queda:#e66767;--borda:rgba(255,255,255,0.10);}}
text{font-family:system-ui, -apple-system, "Segoe UI", sans-serif;fill:var(--tinta)}
.rot{fill:var(--tinta2);font-size:12px}
.eixo{fill:var(--tinta3);font-size:11px}
.titulo{fill:var(--tinta);font-size:15px;font-weight:600}
.sub{fill:var(--tinta2);font-size:12px}
.grade{stroke:var(--grade);stroke-width:1}
.base{stroke:var(--eixo);stroke-width:1}
.val{fill:var(--tinta);font-size:11px;font-variant-numeric:tabular-nums}
</style><rect width="820" height="400" fill="var(--superficie)"/><text x="20.0" y="30.0" class="titulo" text-anchor="start" >Prevalência de diabetes por faixa de IMC (OMS)</text><text x="20.0" y="50.0" class="sub" text-anchor="start" >Gradiente de 6,3× entre eutrófico e obesidade III na população. δ de Cliff = 0,373 — o maior efeito individual da base.</text><circle cx="25.0" cy="70.0" r="5" fill="#2a78d6"/><text x="35.0" y="74.0" class="rot" text-anchor="start" >BRFSS completo (ponderado)</text><circle cx="231.6" cy="70.0" r="5" fill="#eb6834"/><text x="241.6" y="74.0" class="rot" text-anchor="start" >arquivo entregue (sem peso)</text><line x1="54" y1="318.0" x2="796" y2="318.0" class="grade"/><text x="46.0" y="322.0" class="eixo" text-anchor="end" >0%</text><line x1="54" y1="260.4" x2="796" y2="260.4" class="grade"/><text x="46.0" y="264.4" class="eixo" text-anchor="end" >10%</text><line x1="54" y1="202.9" x2="796" y2="202.9" class="grade"/><text x="46.0" y="206.9" class="eixo" text-anchor="end" >20%</text><line x1="54" y1="145.3" x2="796" y2="145.3" class="grade"/><text x="46.0" y="149.3" class="eixo" text-anchor="end" >30%</text><path d="M65.0,318.0 V290.9 Q65.0,286.9 69.0,286.9 H98.8 Q102.8,286.9 102.8,290.9 V318.0 Z" fill="var(--s2)" data-t="baixo_peso — arquivo: 5,40%" class="hv"/><path d="M104.8,318.0 V303.5 Q104.8,299.5 108.8,299.5 H138.7 Q142.7,299.5 142.7,303.5 V318.0 Z" fill="var(--s1)" data-t="baixo_peso — populacional: 3,21%" class="hv"/><text x="123.8" y="291.5" class="val" text-anchor="middle" >3,2</text><text x="103.8" y="338.0" class="eixo" text-anchor="middle" >baixo peso</text><text x="103.8" y="352.0" class="eixo" text-anchor="middle" >&lt;18,5</text><path d="M188.7,318.0 V289.2 Q188.7,285.2 192.7,285.2 H222.5 Q226.5,285.2 226.5,289.2 V318.0 Z" fill="var(--s2)" data-t="eutrofico — arquivo: 5,70%" class="hv"/><path d="M228.5,318.0 V296.9 Q228.5,292.9 232.5,292.9 H262.3 Q266.3,292.9 266.3,296.9 V318.0 Z" fill="var(--s1)" data-t="eutrofico — populacional: 4,36%" class="hv"/><text x="247.4" y="284.9" class="val" text-anchor="middle" >4,4</text><text x="227.5" y="338.0" class="eixo" text-anchor="middle" >eutrófico</text><text x="227.5" y="352.0" class="eixo" text-anchor="middle" >18,5–25</text><path d="M312.3,318.0 V256.4 Q312.3,252.4 316.3,252.4 H346.2 Q350.2,252.4 350.2,256.4 V318.0 Z" fill="var(--s2)" data-t="sobrepeso — arquivo: 11,40%" class="hv"/><path d="M352.2,318.0 V268.0 Q352.2,264.0 356.2,264.0 H386.0 Q390.0,264.0 390.0,268.0 V318.0 Z" fill="var(--s1)" data-t="sobrepeso — populacional: 9,38%" class="hv"/><text x="371.1" y="256.0" class="val" text-anchor="middle" >9,4</text><text x="351.2" y="338.0" class="eixo" text-anchor="middle" >sobrepeso</text><text x="351.2" y="352.0" class="eixo" text-anchor="middle" >25–30</text><path d="M436.0,318.0 V211.3 Q436.0,207.3 440.0,207.3 H469.8 Q473.8,207.3 473.8,211.3 V318.0 Z" fill="var(--s2)" data-t="obesidade_I — arquivo: 19,23%" class="hv"/><path d="M475.8,318.0 V233.6 Q475.8,229.6 479.8,229.6 H509.7 Q513.7,229.6 513.7,233.6 V318.0 Z" fill="var(--s1)" data-t="obesidade_I — populacional: 15,36%" class="hv"/><text x="494.8" y="221.6" class="val" text-anchor="middle" >15,4</text><text x="474.8" y="338.0" class="eixo" text-anchor="middle" >obesidade I</text><text x="474.8" y="352.0" class="eixo" text-anchor="middle" >30–35</text><path d="M559.7,318.0 V164.1 Q559.7,160.1 563.7,160.1 H593.5 Q597.5,160.1 597.5,164.1 V318.0 Z" fill="var(--s2)" data-t="obesidade_II — arquivo: 27,44%" class="hv"/><path d="M599.5,318.0 V200.0 Q599.5,196.0 603.5,196.0 H633.3 Q637.3,196.0 637.3,200.0 V318.0 Z" fill="var(--s1)" data-t="obesidade_II — populacional: 21,20%" class="hv"/><text x="618.4" y="188.0" class="val" text-anchor="middle" >21,2</text><text x="598.5" y="338.0" class="eixo" text-anchor="middle" >obesidade II</text><text x="598.5" y="352.0" class="eixo" text-anchor="middle" >35–40</text><path d="M683.3,318.0 V129.0 Q683.3,125.0 687.3,125.0 H717.2 Q721.2,125.0 721.2,129.0 V318.0 Z" fill="var(--s2)" data-t="obesidade_III — arquivo: 33,54%" class="hv"/><path d="M723.2,318.0 V163.8 Q723.2,159.8 727.2,159.8 H757.0 Q761.0,159.8 761.0,163.8 V318.0 Z" fill="var(--s1)" data-t="obesidade_III — populacional: 27,48%" class="hv"/><text x="742.1" y="151.8" class="val" text-anchor="middle" >27,5</text><text x="722.2" y="338.0" class="eixo" text-anchor="middle" >obesidade III</text><text x="722.2" y="352.0" class="eixo" text-anchor="middle" >≥40</text><line x1="54" y1="318" x2="796" y2="318" class="base"/><text x="20.0" y="374.0" class="rot" text-anchor="start" >A curva em J no baixo peso é esperada: inclui diabetes tipo 1 e perda de peso por doença.</text></svg>